<?xml version="1.0" standalone="no"?>
<!DOCTYPE svg PUBLIC "-//W3C//DTD SVG 20010904//EN"
 "http://www.w3.org/TR/2001/REC-SVG-20010904/DTD/svg10.dtd">
<svg version="1.0" xmlns="http://www.w3.org/2000/svg"
 width="592.000000pt" height="592.000000pt" viewBox="0 0 592.000000 592.000000"
 preserveAspectRatio="xMidYMid meet">
<metadata>
Created by potrace 1.11, written by Peter Selinger 2001-2013
</metadata>
<g transform="translate(0.000000,592.000000) scale(0.100000,-0.100000)"
fill="#000000" stroke="none">
<path d="M2624 5434 c-32 -31 -100 -95 -150 -143 -50 -47 -155 -147 -234 -221
-79 -74 -165 -155 -191 -180 -25 -25 -97 -92 -159 -150 -62 -58 -138 -130
-170 -160 -31 -30 -114 -109 -185 -175 -145 -136 -168 -158 -366 -346 -79 -75
-160 -151 -179 -169 -19 -18 -100 -94 -179 -169 -79 -75 -163 -154 -186 -176
-23 -22 -105 -99 -181 -171 -77 -72 -155 -146 -174 -164 -19 -18 -88 -82 -153
-143 l-117 -111 69 -66 c38 -36 117 -110 176 -165 59 -55 124 -116 145 -135
20 -19 86 -81 146 -136 60 -56 125 -117 145 -135 20 -19 91 -86 159 -149 68
-63 142 -133 165 -155 23 -22 71 -67 106 -99 35 -32 125 -116 199 -186 74 -70
164 -153 199 -186 35 -32 80 -75 101 -94 20 -19 84 -79 141 -132 57 -53 132
-123 165 -155 52 -49 184 -173 318 -297 58 -53 269 -251 311 -291 79 -74 130
-121 140 -127 7 -4 10 191 10 599 0 557 -2 606 -17 617 -15 11 -131 117 -259
238 -42 39 -224 207 -289 268 -62 57 -256 238 -291 270 -20 19 -83 78 -140
130 -56 52 -119 111 -139 130 -20 19 -74 69 -119 110 -154 140 -165 153 -142
162 7 3 156 139 281 258 20 19 77 72 126 116 49 45 113 104 141 131 29 28 89
84 134 124 44 41 100 92 123 114 23 22 76 72 117 110 42 39 124 115 183 170
59 55 122 114 140 130 18 17 59 55 92 85 l59 55 0 613 c0 336 -2 612 -6 612
-3 0 -32 -25 -65 -56z"/>
<path d="M3225 4877 l0 -612 32 -30 c17 -17 73 -68 124 -115 120 -110 142
-131 274 -255 61 -57 119 -112 131 -122 20 -17 198 -182 284 -263 20 -19 86
-80 145 -135 59 -55 122 -113 140 -130 107 -100 234 -216 254 -234 27 -23 24
-28 -37 -84 -25 -23 -59 -55 -77 -72 -17 -16 -82 -77 -145 -135 -62 -58 -130
-121 -151 -140 -20 -19 -81 -76 -136 -126 -54 -51 -114 -107 -134 -125 -145
-135 -278 -258 -414 -384 -53 -49 -116 -108 -140 -130 -23 -22 -66 -62 -96
-90 l-54 -50 0 -605 c-1 -333 0 -610 2 -616 2 -6 33 17 67 50 56 53 207 195
316 296 44 41 263 245 305 285 18 17 88 82 156 146 68 64 140 131 159 149 19
18 87 81 150 140 63 59 131 122 150 140 19 18 91 85 160 150 69 64 139 130
155 144 29 26 67 62 235 220 207 194 329 308 365 341 22 21 92 86 155 145 63
60 131 123 150 140 19 18 65 61 102 96 l67 64 -82 79 c-45 43 -105 101 -133
127 -80 76 -372 355 -419 399 -104 100 -376 359 -430 410 -33 31 -141 134
-239 229 -192 183 -359 342 -411 391 -18 17 -110 104 -204 195 -95 91 -196
187 -224 214 -29 27 -126 120 -217 206 -275 263 -325 310 -330 310 -3 0 -5
-276 -5 -613z"/>
</g>
</svg>
