<svg id="Layer_1" data-name="Layer 1" xmlns="http://www.w3.org/2000/svg" xmlns:xlink="http://www.w3.org/1999/xlink" viewBox="0 0 190.85 32"><defs><style>.cls-1{fill:url(#linear-gradient);}.cls-2{fill:url(#linear-gradient-2);}.cls-3{fill:#4e5051;}</style><linearGradient id="linear-gradient" x1="20.28" y1="16" x2="37.23" y2="16" gradientUnits="userSpaceOnUse"><stop offset="0" stop-color="#21abc7"/><stop offset="1" stop-color="#616db3"/></linearGradient><linearGradient id="linear-gradient-2" x1="0" y1="15.92" x2="16.95" y2="15.92" xlink:href="#linear-gradient"/></defs><title>logo-code-realm</title><polygon class="cls-1" points="20.28 0 20.28 7.76 29.15 16 20.28 24.24 20.28 32 37.23 16.16 20.28 0 20.28 0"/><polygon class="cls-2" points="16.95 24.24 8.08 16 16.95 7.76 16.95 0 0 16 16.95 31.84 16.95 24.24 16.95 24.24"/><path class="cls-3" d="M54.73,27.75a7.48,7.48,0,0,0,1.52-.13,5.42,5.42,0,0,0,1.1-.34,3.8,3.8,0,0,0,.78-.45l.57-.45a4.35,4.35,0,0,1,.48-.34,1,1,0,0,1,.9,0,.68.68,0,0,1,.25.2l1.81,2.17a9.94,9.94,0,0,1-3.58,2.72,11.37,11.37,0,0,1-4.7.93A9.27,9.27,0,0,1,50,31.23a8.15,8.15,0,0,1-2.85-2.12,9.13,9.13,0,0,1-1.75-3.2,13,13,0,0,1-.59-4,15.45,15.45,0,0,1,.44-3.76,14.18,14.18,0,0,1,1.25-3.28,12.74,12.74,0,0,1,1.94-2.71,12,12,0,0,1,8.8-3.79,10.64,10.64,0,0,1,2.37.25,8.59,8.59,0,0,1,1.93.68,7.28,7.28,0,0,1,1.55,1,7.46,7.46,0,0,1,1.19,1.33l-1.81,2.09a2.27,2.27,0,0,1-.44.4,1.15,1.15,0,0,1-.67.17,1,1,0,0,1-.49-.13,3.65,3.65,0,0,1-.45-.31l-.52-.41a3.49,3.49,0,0,0-.68-.4,5,5,0,0,0-.94-.31A5.76,5.76,0,0,0,57,12.66a6.09,6.09,0,0,0-2.72.62A6.43,6.43,0,0,0,52,15.05a8.51,8.51,0,0,0-1.45,2.79,12,12,0,0,0-.52,3.67,8.94,8.94,0,0,0,.36,2.63,6.1,6.1,0,0,0,1,2,4.11,4.11,0,0,0,3.33,1.64Z" transform="translate(-4.39 -4)"/><path class="cls-3" d="M69.69,32a7.12,7.12,0,0,1-2.58-.46A5.89,5.89,0,0,1,65,30.2,6.17,6.17,0,0,1,63.65,28a8.2,8.2,0,0,1-.5-3,10.88,10.88,0,0,1,.72-4,10.12,10.12,0,0,1,1.94-3.16,8.86,8.86,0,0,1,2.83-2.08A8,8,0,0,1,72,15a7.05,7.05,0,0,1,2.57.46,5.9,5.9,0,0,1,2.07,1.34A6.27,6.27,0,0,1,78.06,19a8.09,8.09,0,0,1,.51,3,10.79,10.79,0,0,1-.72,4,10.23,10.23,0,0,1-1.94,3.17,8.89,8.89,0,0,1-2.83,2.09A7.89,7.89,0,0,1,69.69,32Zm.44-3.65a2.36,2.36,0,0,0,1.48-.5,4.06,4.06,0,0,0,1.1-1.36,7.91,7.91,0,0,0,.7-2A11.73,11.73,0,0,0,73.65,22a5,5,0,0,0-.48-2.56,1.72,1.72,0,0,0-1.58-.77,2.36,2.36,0,0,0-1.48.5A4.07,4.07,0,0,0,69,20.55a7.77,7.77,0,0,0-.7,2A11.81,11.81,0,0,0,68.07,25a5.05,5.05,0,0,0,.48,2.55A1.71,1.71,0,0,0,70.13,28.35Z" transform="translate(-4.39 -4)"/><path class="cls-3" d="M97,8l-3,23.75H91.44a2.15,2.15,0,0,1-.77-.12,1.22,1.22,0,0,1-.49-.32,1.16,1.16,0,0,1-.25-.49,2.55,2.55,0,0,1-.07-.62V28.81a9.31,9.31,0,0,1-2.49,2.34,5.41,5.41,0,0,1-2.9.85,4.69,4.69,0,0,1-1.86-.36,3.7,3.7,0,0,1-1.45-1.12,5.51,5.51,0,0,1-1-1.94,10.3,10.3,0,0,1-.34-2.83,12.8,12.8,0,0,1,.3-2.78A13,13,0,0,1,81,20.42a11.56,11.56,0,0,1,1.28-2.18,9.16,9.16,0,0,1,1.64-1.7,7.56,7.56,0,0,1,1.9-1.1,5.55,5.55,0,0,1,2.06-.4,4.81,4.81,0,0,1,1.84.33,4.75,4.75,0,0,1,1.43.9L92.2,8ZM90.77,19.34a2.68,2.68,0,0,0-1-.53,4.13,4.13,0,0,0-1.07-.15,2.49,2.49,0,0,0-1.58.57,5,5,0,0,0-1.24,1.5A8.38,8.38,0,0,0,85,22.85a10.11,10.11,0,0,0-.29,2.43,4.3,4.3,0,0,0,.46,2.28,1.4,1.4,0,0,0,1.22.71,1.86,1.86,0,0,0,1.06-.38,5,5,0,0,0,1.06-1,9.68,9.68,0,0,0,1-1.56,12.28,12.28,0,0,0,.77-1.93Z" transform="translate(-4.39 -4)"/><path class="cls-3" d="M111.39,28.7a17.5,17.5,0,0,1-1.71,1.48,9.37,9.37,0,0,1-1.71,1,8.22,8.22,0,0,1-1.87.59,11.53,11.53,0,0,1-2.17.19,7,7,0,0,1-2.68-.5,6.08,6.08,0,0,1-2.1-1.41,6.33,6.33,0,0,1-1.36-2.2A8.05,8.05,0,0,1,97.3,25a11.25,11.25,0,0,1,.29-2.57,10.89,10.89,0,0,1,.84-2.36,9.88,9.88,0,0,1,1.34-2,8.77,8.77,0,0,1,1.78-1.59,8.41,8.41,0,0,1,2.17-1,8.28,8.28,0,0,1,2.51-.37,6.67,6.67,0,0,1,2.34.38,5.49,5.49,0,0,1,1.72,1,4.27,4.27,0,0,1,1.06,1.37,3.5,3.5,0,0,1,.37,1.52,4.7,4.7,0,0,1-.44,2.05,4.23,4.23,0,0,1-1.55,1.66,10.35,10.35,0,0,1-3,1.24,29.67,29.67,0,0,1-4.69.79,3.69,3.69,0,0,0,.74,2.46,2.68,2.68,0,0,0,2.09.78,5,5,0,0,0,1.13-.11,3.9,3.9,0,0,0,.83-.29,5.34,5.34,0,0,0,.64-.36l.55-.36a2.89,2.89,0,0,1,.55-.29,1.79,1.79,0,0,1,.65-.11,1,1,0,0,1,.46.12,1.49,1.49,0,0,1,.4.31ZM106,18.39a2.86,2.86,0,0,0-2.14,1A6.05,6.05,0,0,0,102.46,22a21.68,21.68,0,0,0,2.47-.51,6.51,6.51,0,0,0,1.48-.58,1.8,1.8,0,0,0,.71-.66,1.62,1.62,0,0,0,.18-.76,1.17,1.17,0,0,0-.32-.78A1.28,1.28,0,0,0,106,18.39Z" transform="translate(-4.39 -4)"/><path class="cls-3" d="M123,8.63a12.64,12.64,0,0,1,3.63.45A6.88,6.88,0,0,1,129,10.33a4.73,4.73,0,0,1,1.39,1.88,6.29,6.29,0,0,1,.44,2.36,8.51,8.51,0,0,1-.34,2.42,7.52,7.52,0,0,1-2.58,3.81A8.48,8.48,0,0,1,125.79,22a4.22,4.22,0,0,1,.87.66,3.42,3.42,0,0,1,.67.94l3.36,8.14H126a2.09,2.09,0,0,1-1.09-.26,1.5,1.5,0,0,1-.63-.72l-2.5-6.84a1.4,1.4,0,0,0-.48-.62,1.56,1.56,0,0,0-.86-.19h-1.16l-1.06,8.63h-5.14l2.82-23.11Zm-1.3,10.91a4.69,4.69,0,0,0,1.89-.34,3.41,3.41,0,0,0,1.26-.91,3.49,3.49,0,0,0,.7-1.33,5.89,5.89,0,0,0,.21-1.6,3.52,3.52,0,0,0-.19-1.18,2.25,2.25,0,0,0-.59-.9,2.82,2.82,0,0,0-1-.58,4.5,4.5,0,0,0-1.44-.21h-1.84l-.87,7.06Z" transform="translate(-4.39 -4)"/><path class="cls-3" d="M145.24,28.7a17.36,17.36,0,0,1-1.71,1.48,9.31,9.31,0,0,1-1.71,1,8.2,8.2,0,0,1-1.87.59,11.51,11.51,0,0,1-2.16.19,7,7,0,0,1-2.68-.5,6.09,6.09,0,0,1-2.1-1.41,6.31,6.31,0,0,1-1.36-2.2,8,8,0,0,1-.48-2.86,11.25,11.25,0,0,1,.29-2.57,10.85,10.85,0,0,1,.84-2.36,9.85,9.85,0,0,1,1.34-2,8.77,8.77,0,0,1,1.78-1.59,8.42,8.42,0,0,1,2.17-1,8.28,8.28,0,0,1,2.51-.37,6.67,6.67,0,0,1,2.34.38,5.47,5.47,0,0,1,1.72,1,4.27,4.27,0,0,1,1.06,1.37,3.5,3.5,0,0,1,.36,1.52,4.71,4.71,0,0,1-.44,2.05,4.23,4.23,0,0,1-1.55,1.66,10.36,10.36,0,0,1-3,1.24,29.65,29.65,0,0,1-4.69.79,3.7,3.7,0,0,0,.74,2.46,2.68,2.68,0,0,0,2.09.78,5,5,0,0,0,1.13-.11,3.91,3.91,0,0,0,.83-.29,5.4,5.4,0,0,0,.64-.36l.55-.36a2.87,2.87,0,0,1,.55-.29,1.79,1.79,0,0,1,.65-.11,1,1,0,0,1,.46.12,1.47,1.47,0,0,1,.4.31Zm-5.42-10.31a2.86,2.86,0,0,0-2.14,1A6.05,6.05,0,0,0,136.31,22a21.75,21.75,0,0,0,2.48-.51,6.51,6.51,0,0,0,1.47-.58,1.79,1.79,0,0,0,.71-.66,1.62,1.62,0,0,0,.18-.76,1.17,1.17,0,0,0-.32-.78A1.28,1.28,0,0,0,139.82,18.39Z" transform="translate(-4.39 -4)"/><path class="cls-3" d="M156.26,29A8.34,8.34,0,0,1,154,31.2a5,5,0,0,1-2.74.8,4.27,4.27,0,0,1-1.71-.36,4.1,4.1,0,0,1-1.46-1.08,5.35,5.35,0,0,1-1-1.84,8.19,8.19,0,0,1-.38-2.64,11.13,11.13,0,0,1,.82-4.24,10.85,10.85,0,0,1,2.28-3.51,11,11,0,0,1,3.48-2.4,10.84,10.84,0,0,1,4.43-.89,18.46,18.46,0,0,1,2.38.16,11.87,11.87,0,0,1,2.38.57l-2,16h-2.63a2.14,2.14,0,0,1-.77-.12,1.22,1.22,0,0,1-.49-.32,1.16,1.16,0,0,1-.25-.49,2.58,2.58,0,0,1-.07-.62ZM157,18.42a4.53,4.53,0,0,0-2.2.54,5.37,5.37,0,0,0-1.7,1.47,6.88,6.88,0,0,0-1.1,2.16,8.65,8.65,0,0,0-.39,2.63,6.12,6.12,0,0,0,.13,1.35,2.89,2.89,0,0,0,.34.9,1.38,1.38,0,0,0,.51.5,1.33,1.33,0,0,0,.64.16,1.66,1.66,0,0,0,1-.4,4.58,4.58,0,0,0,1-1.1,9.81,9.81,0,0,0,.83-1.63,15.12,15.12,0,0,0,.65-2l.59-4.55Z" transform="translate(-4.39 -4)"/><path class="cls-3" d="M163.58,31.75,166.46,8h4.85l-2.89,23.75Z" transform="translate(-4.39 -4)"/><path class="cls-3" d="M171.54,31.75l2-16.45h2.54a1.81,1.81,0,0,1,1.19.36,1.44,1.44,0,0,1,.43,1.17v1a7.64,7.64,0,0,1,2.2-2.07,4.75,4.75,0,0,1,2.43-.67,3.17,3.17,0,0,1,2.32.9,4.49,4.49,0,0,1,1.17,2.63,8.15,8.15,0,0,1,2.4-2.68,5.23,5.23,0,0,1,2.93-.86,4.08,4.08,0,0,1,1.86.41,3.55,3.55,0,0,1,1.36,1.21,5.09,5.09,0,0,1,.75,2,8.8,8.8,0,0,1,0,2.67L193.9,31.75h-4.85l1.24-10.45a6.79,6.79,0,0,0,.06-1.13,2.07,2.07,0,0,0-.14-.73.78.78,0,0,0-.34-.39,1.1,1.1,0,0,0-.52-.12,1.86,1.86,0,0,0-.94.26,3.15,3.15,0,0,0-.86.76,5.93,5.93,0,0,0-.74,1.21,10.74,10.74,0,0,0-.59,1.58l-1.06,9H180.3l1.24-10.45a6.81,6.81,0,0,0,.06-1.13,2.1,2.1,0,0,0-.14-.73.78.78,0,0,0-.34-.39,1.1,1.1,0,0,0-.52-.12,1.86,1.86,0,0,0-1,.27,3.18,3.18,0,0,0-.87.78A6.08,6.08,0,0,0,178,21.2a11.18,11.18,0,0,0-.59,1.61l-1.08,8.93Z" transform="translate(-4.39 -4)"/></svg>