<svg class="db mhc" xmlns="http://www.w3.org/2000/svg" width="280.1" height="216" viewBox="0 0 280.1 216"><linearGradient id="win-SVGID_1_" gradientUnits="userSpaceOnUse" x1="262.111" y1="139.796" x2="262.111" y2="103.796"><stop offset="0" stop-color="#F45950"></stop><stop offset="1" stop-color="#F79D2A"></stop></linearGradient><g class="win-star-three"><circle fill="url(#win-SVGID_1_)" cx="262.1" cy="121.8" r="18"></circle><circle fill="#F45950" cx="262.1" cy="121.8" r="14"></circle><path fill="#F79D2A" d="M262.1 114.2l1.9 5.8h6.1l-4.9 3.6 1.9 5.8-5-3.6-4.9 3.6 1.9-5.8-5-3.6h6.1"></path></g><ellipse fill="#3B3C45" cx="144" cy="136" rx="56" ry="16"></ellipse><path fill="#3B3C45" d="M88 88h112v48H88z"></path><circle fill="#3B3C45" cx="144" cy="88" r="56"></circle><circle fill="#F79D2A" cx="96" cy="96" r="12"></circle><circle fill="#F79D2A" cx="192" cy="96" r="12"></circle><linearGradient id="win-SVGID_2_" gradientUnits="userSpaceOnUse" x1="144" y1="200" x2="144" y2="136"><stop offset="0" stop-color="#616DB3"></stop><stop offset="1" stop-color="#21ABC7"></stop></linearGradient><path fill="url(#win-SVGID_2_)" d="M144 136c-35.3 0-64 28.7-64 64h128c0-35.3-28.7-64-64-64z"></path><path fill="#616DB3" d="M144 136c-4.1 0-8.1.4-12 1.1 29.6 5.6 52 31.6 52 62.9H80v16h128v-16c0-35.3-28.7-64-64-64z"></path><linearGradient id="win-SVGID_3_" gradientUnits="userSpaceOnUse" x1="144" y1="144" x2="144" y2="48"><stop offset="0" stop-color="#F79D2A"></stop><stop offset="1" stop-color="#FFCD2E"></stop></linearGradient><circle fill="url(#win-SVGID_3_)" cx="144" cy="96" r="48"></circle><path fill="#F79D2A" d="M169 55c4.4 7.3 7 15.8 7 25 0 26.5-21.5 48-48 48-9.2 0-17.7-2.6-25-7 8.4 13.8 23.6 23 41 23 26.5 0 48-21.5 48-48 0-17.4-9.2-32.6-23-41z"></path><path fill="#3B3C45" d="M128 104c0 8.8 7.2 16 16 16s16-7.2 16-16h-32z"></path><path fill="#F79D2A" d="M138 90c0 3.3 2.7 6 6 6s6-2.7 6-6h-12z"></path><circle fill="#3B3C45" cx="164" cy="84" r="4"></circle><circle fill="#3B3C45" cx="124" cy="84" r="4"></circle><path fill="#3B3C45" d="M144 32c0 26.5 21.5 48 48 48 0-26.5-21.5-48-48-48z"></path><path fill="#F45950" d="M136.3 118c2.3 1.3 4.9 2 7.7 2s5.4-.7 7.7-2c-.9-3.5-4-6-7.7-6s-6.8 2.6-7.7 6z"></path><g class="win-star-one"><circle fill="#F79D2A" cx="56" cy="136" r="40"></circle><linearGradient id="win-SVGID_4_" gradientUnits="userSpaceOnUse" x1="56" y1="168" x2="56" y2="104"><stop offset="0" stop-color="#F45950"></stop><stop offset="1" stop-color="#F79D2A"></stop></linearGradient><circle fill="url(#win-SVGID_4_)" cx="56" cy="136" r="32"></circle><path fill="#F45950" d="M28 140c0-17.7 14.3-32 32-32 7.8 0 15 2.8 20.5 7.5-5.9-7-14.7-11.5-24.5-11.5-17.7 0-32 14.3-32 32 0 9.9 4.5 18.7 11.5 24.5C30.8 155 28 147.8 28 140z"></path><path fill="#F79D2A" d="M56 118.1l4 12.4h13l-10.5 7.6 4 12.4-10.5-7.7-10.5 7.7 4-12.4-10.5-7.6h13"></path></g><g class="win-star-three"><linearGradient id="win-SVGID_5_" gradientUnits="userSpaceOnUse" x1="182" y1="36" x2="182"><stop offset="0" stop-color="#F79D2A"></stop><stop offset="1" stop-color="#FFCD2E"></stop></linearGradient><circle fill="url(#win-SVGID_5_)" cx="182" cy="18" r="18"></circle><circle fill="#F79D2A" cx="182" cy="18" r="14"></circle><path fill="#FFCD2E" d="M182 10.4l1.9 5.8h6.1l-4.9 3.6 1.8 5.8L182 22l-4.9 3.6 1.8-5.8-4.9-3.6h6.1"></path></g><g class="win-star-four"><linearGradient id="win-SVGID_6_" gradientUnits="userSpaceOnUse" x1="212" y1="160" x2="212" y2="136"><stop offset="0" stop-color="#616DB3"></stop><stop offset="1" stop-color="#21ABC7"></stop></linearGradient><circle fill="url(#win-SVGID_6_)" cx="212" cy="148" r="12"></circle><circle fill="#616DB3" cx="212" cy="148" r="9"></circle><path fill="#21ABC7" d="M212 143.2l1.2 3.7h3.8l-3.1 2.2 1.2 3.7-3.1-2.3-3.1 2.3 1.2-3.7-3.1-2.2h3.8"></path></g><g class="win-star-four"><linearGradient id="win-SVGID_7_" gradientUnits="userSpaceOnUse" x1="12" y1="80" x2="12" y2="56"><stop offset="0" stop-color="#59BC69"></stop><stop offset="1" stop-color="#C0D84D"></stop></linearGradient><circle fill="url(#win-SVGID_7_)" cx="12" cy="68" r="12"></circle><circle fill="#59BC69" cx="12" cy="68" r="9"></circle><path fill="#C0D84D" d="M12 63.2l1.2 3.7H17l-3.1 2.2 1.2 3.7-3.1-2.3-3.1 2.3 1.2-3.7L7 66.9h3.8"></path></g><g class="win-star-two"><circle fill="#C0D84D" cx="232" cy="56" r="32"></circle><linearGradient id="win-SVGID_8_" gradientUnits="userSpaceOnUse" x1="232" y1="80" x2="232" y2="32"><stop offset="0" stop-color="#59BC69"></stop><stop offset="1" stop-color="#C0D84D"></stop></linearGradient><circle fill="url(#win-SVGID_8_)" cx="232" cy="56" r="24"></circle><path fill="#59BC69" d="M212 60c0-13.3 10.7-24 24-24 5.6 0 10.8 1.9 14.8 5.2-4.4-5.6-11.2-9.2-18.8-9.2-13.3 0-24 10.7-24 24 0 7.6 3.6 14.5 9.2 18.8-3.3-4-5.2-9.2-5.2-14.8z"></path><path fill="#C0D84D" d="M232 42.9l2.8 8.7h9.2l-7.4 5.4 2.8 8.7-7.4-5.4-7.4 5.4 2.8-8.7-7.4-5.4h9.2"></path></g><g class="win-star-two"><circle fill="#21ABC7" cx="64" cy="32" r="32"></circle><linearGradient id="win-SVGID_9_" gradientUnits="userSpaceOnUse" x1="64" y1="56" x2="64" y2="8"><stop offset="0" stop-color="#616DB3"></stop><stop offset="1" stop-color="#21ABC7"></stop></linearGradient><circle fill="url(#win-SVGID_9_)" cx="64" cy="32" r="24"></circle><path fill="#616DB3" d="M44 36c0-13.3 10.7-24 24-24 5.6 0 10.8 1.9 14.8 5.2C78.5 11.6 71.6 8 64 8 50.7 8 40 18.7 40 32c0 7.6 3.6 14.5 9.2 18.8-3.3-4-5.2-9.2-5.2-14.8z"></path><path fill="#21ABC7" d="M64 18.9l2.8 8.7H76L68.6 33l2.8 8.7-7.4-5.4-7.4 5.4 2.8-8.7-7.4-5.4h9.2"></path></g><path fill="#F1F2F3" d="M116.8,1.2c-0.5-1.6-1.2-1.6-1.7,0L113.8,6c-0.5,1.6-2.2,3.3-3.8,3.8l-4.8,1.4c-1.6,0.5-1.6,1.2,0,1.7l4.8,1.4c1.6,0.5,3.3,2.2,3.8,3.8l1.4,4.8c0.5,1.6,1.2,1.6,1.7,0l1.4-4.8c0.5-1.6,2.2-3.3,3.8-3.8l4.8-1.4c1.6-0.5,1.6-1.2,0-1.7L122,9.8c-1.6-0.5-3.3-2.2-3.8-3.8L116.8,1.2z"></path>
<path fill="#F1F2F3" d="M244.8,161.2c-0.5-1.6-1.2-1.6-1.7,0l-1.4,4.8c-0.5,1.6-2.2,3.3-3.8,3.8l-4.8,1.4c-1.6,0.5-1.6,1.2,0,1.7
l4.8,1.4c1.6,0.5,3.3,2.2,3.8,3.8l1.4,4.8c0.5,1.6,1.2,1.6,1.7,0l1.4-4.8c0.5-1.6,2.2-3.3,3.8-3.8l4.8-1.4c1.6-0.5,1.6-1.2,0-1.7
l-4.8-1.4c-1.6-0.5-3.3-2.2-3.8-3.8L244.8,161.2z"></path>
<path fill="#F1F2F3" d="M218.4,108.6c-0.2-0.8-0.6-0.8-0.8,0l-0.7,2.4c-0.2,0.8-1.1,1.7-1.9,1.9l-2.4,0.7c-0.8,0.2-0.8,0.6,0,0.8
l2.4,0.7c0.8,0.2,1.7,1.1,1.9,1.9l0.7,2.4c0.2,0.8,0.6,0.8,0.8,0l0.7-2.4c0.2-0.8,1.1-1.7,1.9-1.9l2.4-0.7c0.8-0.2,0.8-0.6,0-0.8
l-2.4-0.7c-0.8-0.2-1.7-1.1-1.9-1.9L218.4,108.6z"></path>
<path fill="#F1F2F3" d="M74.4,72.6c-0.2-0.8-0.6-0.8-0.8,0L72.9,75c-0.2,0.8-1.1,1.7-1.9,1.9l-2.4,0.7c-0.8,0.2-0.8,0.6,0,0.8
l2.4,0.7c0.8,0.2,1.7,1.1,1.9,1.9l0.7,2.4c0.2,0.8,0.6,0.8,0.8,0l0.7-2.4c0.2-0.8,1.1-1.7,1.9-1.9l2.4-0.7c0.8-0.2,0.8-0.6,0-0.8
L77,76.9c-0.8-0.2-1.7-1.1-1.9-1.9L74.4,72.6z"></path>
<path fill="#F1F2F3" d="M212.3,16.4c-0.2-0.5-0.4-0.5-0.6,0l-0.5,1.6c-0.2,0.5-0.7,1.1-1.3,1.3l-1.6,0.5c-0.5,0.2-0.5,0.4,0,0.6
l1.6,0.5c0.5,0.2,1.1,0.7,1.3,1.3l0.5,1.6c0.2,0.5,0.4,0.5,0.6,0l0.5-1.6c0.2-0.5,0.7-1.1,1.3-1.3l1.6-0.5c0.5-0.2,0.5-0.4,0-0.6
l-1.6-0.5c-0.5-0.2-1.1-0.7-1.3-1.3L212.3,16.4z"></path><g class="win-points"><linearGradient id="win-SVGID_10_" gradientUnits="userSpaceOnUse" x1="146.131" y1="204" x2="146.131" y2="176"><stop offset="0" stop-color="#59BC69"></stop><stop offset="1" stop-color="#C0D84D"></stop></linearGradient><path fill="url(#win-SVGID_10_)" d="M182.1 200c0 2.2-1.8 4-4 4h-64c-2.2 0-4-1.8-4-4v-20c0-2.2 1.8-4 4-4h64c2.2 0 4 1.8 4 4v20z"></path><g fill="#F0F2F3"><path d="M122 188.6h1.5v1.8h1.8v1.5h-1.8v1.8H122V192h-1.8v-1.5h1.8v-1.9zM133.2 192.1v1.7H127l3.1-3.4c.4-.5.9-1.2.9-1.9 0-.5-.3-1-.9-1-.5 0-.8.4-.8.9v.3h-2.2c.1-1.8 1.2-2.9 3-2.9 1.6 0 3 1.1 3 2.7 0 1.1-.5 1.7-1.2 2.4l-1.2 1.1h2.5zM137.2 187.9l-.1.9.6-.1c1.6-.1 2.7 1.2 2.7 2.7 0 .8-.4 1.6-1 2.1s-1.5.6-2.2.6c-.9 0-1.8-.2-2.5-.7l.3-1.9c.6.5 1.3.9 2.1.9.6 0 1.2-.5 1.2-1.1 0-.9-.9-1.3-1.7-1.3-.5 0-1 .1-1.5.3l.7-4.1h4v1.7h-2.6zM148.3 190c0 2-1 4.1-3.2 4.1-2.3 0-3.2-2.1-3.2-4.1s1-4.1 3.2-4.1 3.2 2.1 3.2 4.1zm-4.5 0c0 .7.2 2.4 1.3 2.4s1.3-1.6 1.3-2.4-.2-2.4-1.3-2.4-1.3 1.6-1.3 2.4zM153.7 186.2h3c1.6 0 2.8.8 2.8 2.5 0 1.8-1 2.6-2.7 2.6h-1.1v2.5h-2v-7.6zm2 3.5h.3c.7 0 1.4 0 1.4-.9 0-1-.7-1-1.4-1h-.3v1.9zM164 193.8h-2v-6h-1.6v-1.7h5.3v1.7H164v6zM171 188.1c-.4-.3-.8-.5-1.3-.5-.4 0-.9.2-.9.6 0 .4.5.6.9.7l.5.2c1.1.3 1.9.9 1.9 2.1 0 .8-.2 1.5-.8 2.1-.6.5-1.4.7-2.2.7-1 0-1.9-.3-2.7-.9l.9-1.6c.5.4 1.1.8 1.8.8.5 0 1-.2 1-.8 0-.6-.8-.8-1.2-.9-1.2-.4-2.1-.7-2.1-2.2 0-1.6 1.1-2.6 2.6-2.6.8 0 1.7.2 2.4.6l-.8 1.7z"></path></g></g></svg>